<?xml version="1.0" standalone="no"?><!DOCTYPE svg PUBLIC "-//W3C//DTD SVG 1.1//EN" "http://www.w3.org/Graphics/SVG/1.1/DTD/svg11.dtd"><svg t="1521782634721" class="icon" style="" viewBox="0 0 1024 1024" version="1.1" xmlns="http://www.w3.org/2000/svg" p-id="2702" xmlns:xlink="http://www.w3.org/1999/xlink" width="200" height="200"><defs><style type="text/css"></style></defs><path d="M512 0C230.4 0 0 230.4 0 512s230.4 512 512 512 512-230.4 512-512S793.6 0 512 0z" fill="#8B97A6" p-id="2703"></path><path d="M437.76 307.2l-125.44 176.64c12.8 5.12 28.16 10.24 40.96 12.8 0 0 263.68-120.32 263.68 46.08s-179.2 363.52-199.68 368.64c-17.92 2.56-35.84-10.24-43.52-25.6-10.24-17.92 10.24-145.92 0-166.4-10.24-20.48-33.28-17.92-48.64-38.4-15.36-17.92-25.6-38.4-28.16-64 0-23.04 5.12-46.08 15.36-66.56-81.92-35.84-153.6-94.72-202.24-171.52 2.56-12.8 7.68-25.6 12.8-38.4C189.44 192 332.8 97.28 494.08 89.6c5.12 2.56 12.8 5.12 17.92 7.68-10.24 7.68-61.44 40.96-7.68 74.24 20.48 10.24 35.84 25.6 48.64 46.08 15.36 35.84-43.52 56.32-69.12 69.12-153.6 89.6-199.68 89.6-204.8 135.68-2.56 25.6 10.24 48.64 33.28 58.88l125.44-174.08z" fill="#BDC6CF" p-id="2704"></path><path d="M803.84 286.72c2.56-5.12 2.56-7.68 2.56-12.8 0-20.48-30.72-28.16-40.96-43.52-10.24-15.36 5.12-30.72 23.04-40.96 135.68 115.2 184.32 299.52 122.88 465.92-7.68-102.4-48.64-89.6-48.64-89.6-53.76 10.24-107.52-12.8-135.68-58.88s-25.6-104.96 5.12-148.48c17.92-25.6 58.88-43.52 71.68-71.68z" fill="#FFFFFF" p-id="2705"></path></svg>