<?xml version="1.0" standalone="no"?><!DOCTYPE svg PUBLIC "-//W3C//DTD SVG 1.1//EN" "http://www.w3.org/Graphics/SVG/1.1/DTD/svg11.dtd"><svg t="1522143510573" class="icon" style="" viewBox="0 0 1024 1024" version="1.1" xmlns="http://www.w3.org/2000/svg" p-id="6108" xmlns:xlink="http://www.w3.org/1999/xlink" width="200" height="200"><defs><style type="text/css"></style></defs><path d="M816.505263 840.757895v-808.421053c0-16.168421-13.473684-29.642105-29.642105-29.642105H35.031579C18.863158 2.694737 5.389474 16.168421 5.389474 32.336842v808.421053c0 16.168421 13.473684 29.642105 29.642105 29.642105h751.831579c16.168421 2.694737 29.642105-10.778947 29.642105-29.642105zM622.484211 700.631579H196.715789c-24.252632 0-43.115789-18.863158-43.115789-43.11579 0-118.568421 80.842105-218.273684 194.021053-247.915789 10.778947-2.694737 16.168421-10.778947 18.863158-18.863158 0-10.778947-2.694737-18.863158-13.473685-24.252631-29.642105-13.473684-72.757895-16.168421-72.757894-75.452632V258.694737c0-72.757895 37.726316-137.431579 110.48421-137.431579h35.031579c72.757895 0 110.484211 64.673684 110.484211 137.431579v35.031579c0 59.284211-45.810526 59.284211-72.757895 75.452631-8.084211 5.389474-13.473684 13.473684-13.473684 24.252632s8.084211 18.863158 18.863158 21.557895c115.873684 26.947368 194.021053 129.347368 194.021052 247.915789 2.694737 18.863158-18.863158 37.726316-40.421052 37.726316z" fill="#4A8CF2" p-id="6109"></path><path d="M1015.915789 172.463158c-5.389474-5.389474-13.473684-10.778947-21.557894-10.778947L862.315789 142.821053v700.631579c0 43.115789-35.031579 78.147368-78.147368 78.147368H199.410526L862.315789 1021.305263c18.863158 2.694737 32.336842-8.084211 35.031579-26.947368l123.957895-800.336842c0-5.389474-2.694737-13.473684-5.389474-21.557895z" fill="#4A8CF2" p-id="6110"></path></svg>