<?xml version="1.0" standalone="no"?><!DOCTYPE svg PUBLIC "-//W3C//DTD SVG 1.1//EN" "http://www.w3.org/Graphics/SVG/1.1/DTD/svg11.dtd"><svg t="1522394329653" class="icon" style="" viewBox="0 0 1280 1024" version="1.1" xmlns="http://www.w3.org/2000/svg" p-id="3403" xmlns:xlink="http://www.w3.org/1999/xlink" width="250" height="200"><defs><style type="text/css"></style></defs><path d="M64 0h1152c35.2 0 64 28.8 64 64v896c0 35.2-28.8 64-64 64H64c-35.2 0-64-28.8-64-64V64C0 28.8 28.8 0 64 0z m272 761.6c12.8-16 19.2-35.2 12.8-54.4s-19.2-32-38.4-38.4c-19.2-6.4-38.4 0-51.2 12.8l-124.8 124.8c12.8 35.2 41.6 64 76.8 76.8l124.8-121.6z m729.6 124.8c35.2-12.8 64-41.6 76.8-76.8l-124.8-124.8c-22.4-22.4-54.4-22.4-76.8 0s-22.4 54.4 0 76.8l124.8 124.8z m86.4-608V256c0-41.6-19.2-80-54.4-102.4L761.6 476.8c-73.6 73.6-192 73.6-265.6 0l-316.8-320C147.2 179.2 128 214.4 128 256v28.8l278.4 281.6c121.6 121.6 323.2 121.6 444.8 0l300.8-288z" fill="#C0C6CF" p-id="3404"></path></svg>