<?xml version="1.0" standalone="no"?><!DOCTYPE svg PUBLIC "-//W3C//DTD SVG 1.1//EN" "http://www.w3.org/Graphics/SVG/1.1/DTD/svg11.dtd"><svg t="1526009521047" class="icon" style="" viewBox="0 0 1024 1024" version="1.1" xmlns="http://www.w3.org/2000/svg" p-id="3462" xmlns:xlink="http://www.w3.org/1999/xlink" width="200" height="200"><defs><style type="text/css"></style></defs><path d="M512 0c281.6 0 512 230.4 512 512s-230.4 512-512 512S0 793.6 0 512 230.4 0 512 0z m-30.72 414.72l76.8-76.8c38.4-38.4 99.84-38.4 138.24 0 38.4 38.4 38.4 99.84 0 138.24l-76.8 76.8 43.52 43.52 76.8-76.8c61.44-61.44 61.44-161.28 0-225.28s-161.28-61.44-225.28 0l-76.8 76.8 43.52 43.52z m71.68 204.8l-76.8 76.8c-38.4 38.4-99.84 38.4-138.24 0-38.4-38.4-38.4-99.84 0-138.24l76.8-76.8-43.52-43.52-76.8 76.8c-61.44 61.44-61.44 161.28 0 225.28 61.44 61.44 161.28 61.44 225.28 0l76.8-76.8-43.52-43.52z m-89.6-5.12l151.04-151.04-43.52-43.52-151.04 151.04 43.52 43.52z" fill="#4A8CF2" p-id="3463"></path></svg>