<?xml version="1.0" standalone="no"?><!DOCTYPE svg PUBLIC "-//W3C//DTD SVG 1.1//EN" "http://www.w3.org/Graphics/SVG/1.1/DTD/svg11.dtd"><svg t="1523427219613" class="icon" style="" viewBox="0 0 1024 1024" version="1.1" xmlns="http://www.w3.org/2000/svg" p-id="3949" xmlns:xlink="http://www.w3.org/1999/xlink" width="200" height="200"><defs><style type="text/css"></style></defs><path d="M915.2 800c3.2 9.6 6.4 22.4 6.4 38.4 3.2 16 3.2 32 3.2 48s0 32-3.2 44.8c-3.2 16-6.4 25.6-12.8 32-3.2 6.4-12.8 9.6-28.8 16-16 3.2-35.2 9.6-57.6 12.8-22.4 3.2-48 6.4-76.8 12.8-28.8 3.2-57.6 6.4-83.2 9.6-28.8 3.2-54.4 3.2-83.2 6.4-25.6 0-51.2 3.2-70.4 3.2-19.2 0-44.8 0-70.4-3.2-25.6 0-54.4-3.2-80-6.4-28.8-3.2-54.4-6.4-83.2-6.4-28.8-3.2-51.2-6.4-73.6-9.6-22.4-3.2-41.6-6.4-57.6-9.6-16-3.2-25.6-6.4-28.8-9.6-6.4-6.4-12.8-22.4-16-48-3.2-32-3.2-67.2 3.2-112 3.2-25.6 12.8-44.8 32-57.6 16-12.8 35.2-22.4 57.6-32 22.4-6.4 44.8-16 70.4-19.2 25.6-6.4 44.8-16 64-25.6 12.8-9.6 25.6-16 32-25.6 6.4-9.6 12.8-16 16-25.6 3.2-9.6 6.4-16 6.4-25.6v-28.8c0-16-6.4-28.8-16-38.4-9.6-9.6-19.2-19.2-32-28.8-6.4-3.2-9.6-9.6-16-19.2-3.2-9.6-6.4-16-12.8-25.6-3.2-9.6-6.4-19.2-9.6-32l-6.4-6.4c-3.2-3.2-6.4-9.6-6.4-16-3.2-6.4-6.4-16-9.6-25.6-3.2-12.8-6.4-22.4-6.4-32v-22.4c0-9.6 3.2-16 6.4-22.4 0-25.6 0-51.2 3.2-76.8 0-25.6 6.4-48 12.8-73.6 6.4-25.6 16-48 32-67.2 12.8-19.2 28.8-35.2 44.8-44.8 16-12.8 32-22.4 48-28.8 16-6.4 35.2-12.8 51.2-12.8 16-3.2 32-6.4 48-6.4s32 3.2 41.6 6.4c9.6 3.2 19.2 6.4 25.6 9.6 6.4 3.2 12.8 9.6 16 12.8l16 16h22.4c6.4 0 12.8 0 19.2 3.2l19.2 9.6c6.4 6.4 12.8 12.8 19.2 22.4 16 22.4 28.8 44.8 38.4 73.6 9.6 25.6 12.8 51.2 19.2 73.6 3.2 28.8 6.4 54.4 6.4 80 0 3.2 3.2 9.6 3.2 12.8 0 6.4 0 12.8 3.2 19.2 0 6.4 0 16-3.2 28.8 0 16-3.2 25.6-6.4 35.2-3.2 9.6-6.4 16-9.6 19.2-3.2 6.4-6.4 9.6-12.8 9.6-3.2 12.8-6.4 22.4-9.6 32-3.2 9.6-6.4 16-12.8 25.6-3.2 9.6-9.6 16-16 19.2-12.8 9.6-22.4 19.2-32 25.6-9.6 6.4-12.8 19.2-16 35.2-3.2 9.6-3.2 19.2-3.2 32 0 9.6 3.2 22.4 9.6 32 6.4 9.6 12.8 22.4 22.4 32 9.6 9.6 25.6 19.2 44.8 25.6 16 6.4 35.2 12.8 57.6 19.2 19.2 6.4 41.6 12.8 57.6 19.2 19.2 6.4 35.2 16 51.2 25.6 16 12.8 25.6 25.6 32 44.8z m-358.4-35.2c3.2-3.2 3.2-9.6 0-12.8-3.2-6.4-3.2-9.6-9.6-12.8-3.2-3.2-9.6-9.6-12.8-16h-51.2c-6.4 6.4-9.6 9.6-12.8 16-3.2 3.2-6.4 6.4-6.4 12.8-3.2 3.2-3.2 9.6 0 12.8 6.4 9.6 9.6 19.2 12.8 25.6 3.2 6.4 6.4 12.8 12.8 19.2 0 6.4-3.2 16-6.4 28.8l-9.6 38.4c-3.2 12.8-6.4 25.6-6.4 35.2-3.2 12.8-3.2 19.2-3.2 25.6 0 3.2 3.2 9.6 6.4 12.8 3.2 6.4 6.4 9.6 12.8 16 3.2 6.4 9.6 9.6 12.8 12.8 6.4 3.2 9.6 6.4 12.8 6.4 3.2 0 9.6-3.2 12.8-6.4 6.4-3.2 9.6-6.4 16-12.8s9.6-9.6 12.8-16c3.2-6.4 6.4-9.6 6.4-12.8 0-3.2 0-12.8-3.2-22.4-3.2-9.6-3.2-22.4-6.4-35.2l-9.6-38.4c-3.2-12.8-6.4-22.4-6.4-28.8 3.2-3.2 9.6-9.6 12.8-16 3.2-12.8 9.6-22.4 12.8-32z" fill="#108EE9" p-id="3950"></path></svg>