<?xml version="1.0" standalone="no"?><!DOCTYPE svg PUBLIC "-//W3C//DTD SVG 1.1//EN" "http://www.w3.org/Graphics/SVG/1.1/DTD/svg11.dtd"><svg t="1522293958047" class="icon" style="" viewBox="0 0 1024 1024" version="1.1" xmlns="http://www.w3.org/2000/svg" p-id="3187" xmlns:xlink="http://www.w3.org/1999/xlink" width="200" height="200"><defs><style type="text/css"></style></defs><path d="M634.646699 1023.203556H369.999588a7.509333 7.509333 0 0 1-7.497956-7.532089 7.509333 7.509333 0 0 1 7.497956-7.520711h264.635733a7.509333 7.509333 0 0 1 7.486578 7.520711 7.509333 7.509333 0 0 1-7.486578 7.532089z m-26.168889-920.405334a18.7392 18.7392 0 0 1-18.2272-14.563555l-14.859378-64.136534A18.818844 18.818844 0 0 1 589.385899 1.479111a18.716444 18.716444 0 0 1 22.471111 14.062933l14.859378 64.159289a18.818844 18.818844 0 0 1-18.249956 23.096889z m208.327111 165.455645c-1.2288 0-2.468978-0.113778-3.720533-0.375467l-64.216178-13.038933a18.818844 18.818844 0 0 1-14.6432-22.186667 18.727822 18.727822 0 0 1 22.050133-14.711467l64.216178 13.038934a18.818844 18.818844 0 0 1 14.6432 22.175289 18.750578 18.750578 0 0 1-18.318222 15.098311z m-102.354489-129.388089c-5.393067 0-10.740622-2.332444-14.449778-6.826667a18.898489 18.898489 0 0 1 2.503111-26.510222l55.068445-45.738667a18.648178 18.648178 0 0 1 26.362311 2.525867 18.887111 18.887111 0 0 1-2.503111 26.498844l-55.068445 45.738667c-3.356444 2.787556-7.566222 4.312178-11.912533 4.312178z m180.815644 831.3856H453.785543l309.4528-112.776534a76.003556 76.003556 0 0 0 43.133156-39.6288 76.663467 76.663467 0 0 0 2.616889-58.686577l-20.059023-55.637334a13.084444 13.084444 0 0 0-16.770844-7.907555 13.198222 13.198222 0 0 0-7.850667 16.873244l20.047645 55.637334a50.358044 50.358044 0 0 1-1.718045 38.559288 49.902933 49.902933 0 0 1-28.330666 26.020978L406.055765 959.624533a49.584356 49.584356 0 0 1-38.343111-1.729422 49.982578 49.982578 0 0 1-25.884444-28.489955L149.41861 395.639467c-9.4208-26.134756 4.061867-55.102578 30.048711-64.580267l348.251022-126.919111a49.584356 49.584356 0 0 1 38.343111 1.7408 49.982578 49.982578 0 0 1 25.873067 28.4672l78.597689 218.794667a13.084444 13.084444 0 0 0 16.782222 7.918933 13.198222 13.198222 0 0 0 7.862044-16.861867l-78.597688-218.817422a76.117333 76.117333 0 0 0-39.424-43.372089 75.480178 75.480178 0 0 0-58.368-2.639644L170.535765 306.289778C130.963854 320.7168 110.438343 364.828444 124.774343 404.616533L317.206699 938.382222a76.481422 76.481422 0 0 0 56.376889 48.992711 9.159111 9.159111 0 0 0 5.028977 1.501867h6.564978a72.931556 72.931556 0 0 0 7.771022 0h502.328889c5.12 0 9.261511-4.164267 9.261511-9.307022a9.284267 9.284267 0 0 0-9.261511-9.3184z m-90.908444-563.666489l-20.354844-11.104711c-8.123733-4.437333-19.7632 1.3312-25.998223 12.891022l-169.392355 313.912889a8.692622 8.692622 0 0 0-1.092267 4.357689l1.103645 34.724978a5.302044 5.302044 0 0 0-1.570134 0.341333l-52.622222 19.717689a5.654756 5.654756 0 0 0 3.925333 10.581333l50.642489-18.978133 0.011378 0.4096c0.125156 3.822933 3.265422 5.5296 6.519467 3.549866l39.822222-24.246044a8.692622 8.692622 0 0 0 3.049244-3.299556l169.380978-313.912888c6.235022-11.548444 4.699022-24.507733-3.424711-28.945067zM425.682432 822.192356l-38.616178 14.461155a5.620622 5.620622 0 0 0-3.299555 7.2704c1.092267 2.912711 4.323556 4.4032 7.224889 3.310933l38.616177-14.472533a5.632 5.632 0 0 0 3.299556-7.259022 5.620622 5.620622 0 0 0-7.224889-3.310933z m80.6912-30.253512l-52.622222 19.729067a5.620622 5.620622 0 0 0-3.299556 7.259022c1.080889 2.924089 4.323556 4.4032 7.224889 3.322311l52.610845-19.717688a5.620622 5.620622 0 0 0 3.299555-7.2704 5.632 5.632 0 0 0-7.213511-3.322312z m-154.874311-87.267555a5.654756 5.654756 0 0 1-1.968356-10.934045l33.018311-12.379022a5.654756 5.654756 0 0 1 3.925334 10.581334l-33.029689 12.379022a5.5296 5.5296 0 0 1-1.9456 0.352711z m61.075911-22.892089a5.620622 5.620622 0 0 1-5.12-7.998578 5.632 5.632 0 0 1 3.151644-2.946844l52.622223-19.717689a5.586489 5.586489 0 0 1 7.224889 3.322311 5.666133 5.666133 0 0 1-3.299556 7.259022l-52.622222 19.717689a5.540978 5.540978 0 0 1-1.956978 0.364089z m80.668444-30.230756a5.620622 5.620622 0 0 1-5.097244-7.998577 5.620622 5.620622 0 0 1 3.151644-2.946845l52.610845-19.729066a5.586489 5.586489 0 0 1 7.224889 3.322311 5.666133 5.666133 0 0 1-3.299556 7.259022l-52.622222 19.729067a5.575111 5.575111 0 0 1-1.956978 0.364088z m80.6912-30.253511a5.654756 5.654756 0 0 1-1.956977-10.934044l52.610844-19.717689a5.575111 5.575111 0 0 1 7.224889 3.322311 5.666133 5.666133 0 0 1-3.299556 7.259022l-52.622222 19.717689a5.575111 5.575111 0 0 1-1.956978 0.352711z" fill="#BDC6CF" p-id="3188"></path></svg>