<?xml version="1.0" standalone="no"?><!DOCTYPE svg PUBLIC "-//W3C//DTD SVG 1.1//EN" "http://www.w3.org/Graphics/SVG/1.1/DTD/svg11.dtd"><svg t="1522143985101" class="icon" style="" viewBox="0 0 1024 1024" version="1.1" xmlns="http://www.w3.org/2000/svg" p-id="6649" xmlns:xlink="http://www.w3.org/1999/xlink" width="200" height="200"><defs><style type="text/css"></style></defs><path d="M202.33435 125.983097C146.208294 125.983097 102.838159 169.353232 102.838159 225.479288v596.977146C102.838159 876.031306 146.208294 919.40144 202.33435 919.40144h596.977146c53.574872 0 99.496191-43.370135 99.496191-99.496191V429.574039l102.047375-99.496191v528.095167c0 91.842638-76.535531 165.826985-168.378169 165.826985H164.066584C74.775131 1021.448816 0.790784 947.464469 0.790784 855.621831V197.41626C0.790784 105.573622 74.775131 21.384538 164.066584 21.384538H689.610567l-99.496191 102.047375-387.780026 2.551184z" fill="#4A8CF2" p-id="6650"></path><path d="M567.153717 610.70813l-221.953041 61.228425 63.779609-219.401857zM587.563192 587.747471l-158.173432-155.622248L776.350836 85.164147l158.173432 158.173432zM1005.957431 171.904416l-48.472504 45.921319-158.173431-158.173432L847.783999 13.730985c17.858291-17.858291 45.921319-17.858291 61.228425-2.551185l99.496191 96.945007c15.307106 17.858291 15.307106 45.921319-2.551184 63.779609z" fill="#A3C5F8" p-id="6651"></path></svg>