<?xml version="1.0" standalone="no"?><!DOCTYPE svg PUBLIC "-//W3C//DTD SVG 1.1//EN" "http://www.w3.org/Graphics/SVG/1.1/DTD/svg11.dtd"><svg t="1522143798772" class="icon" style="" viewBox="0 0 1050 1024" version="1.1" xmlns="http://www.w3.org/2000/svg" p-id="6541" xmlns:xlink="http://www.w3.org/1999/xlink" width="205.078125" height="200"><defs><style type="text/css"></style></defs><path d="M964.310487 458.664053c-40.381139-5.384152-75.378126-32.304911-91.530582-72.68605l-10.768304-29.612836c-13.46038-37.689063-5.384152-80.762278 21.536608-113.067189 32.304911-34.996987 29.612835-88.838506-5.384152-121.143417-16.152456-16.152456-34.996987-29.612835-53.841519-43.073215-37.689063-26.920759-91.530582-18.844532-121.143417 18.844531-24.228683 34.996987-67.301898 51.149443-107.683038 43.073215L563.191172 135.614941c-40.381139-5.384152-75.378126-34.996987-86.14643-75.378127-13.46038-45.765291-61.917747-69.993974-107.683037-56.533594l-64.609823 24.228683c-21.536608 8.076228-37.689063 26.920759-45.765291 48.457367s-8.076228 45.765291 2.692076 67.301898c16.152456 37.689063 10.768304 80.762278-16.152456 113.06719l-21.536607 26.920759c-26.920759 32.304911-67.301898 45.765291-107.683038 37.689063-45.765291-10.768304-91.530582 18.844532-102.298885 64.609823-2.692076 10.768304-5.384152 24.228683-8.076228 34.996987-2.692076 13.46038-5.384152 26.920759-5.384152 37.689063-5.384152 48.457367 29.612835 88.838506 78.070202 94.222658 40.381139 5.384152 75.378126 32.304911 91.530582 72.68605l13.46038 32.304911c13.46038 37.689063 5.384152 80.762278-21.536608 113.06719-32.304911 34.996987-29.612835 88.838506 5.384152 118.451341 16.152456 16.152456 34.996987 32.304911 53.841519 45.765291 37.689063 26.920759 91.530582 18.844532 121.143417-18.844532 24.228683-34.996987 67.301898-51.149443 107.683038-43.073215l32.304911 5.384152c40.381139 5.384152 75.378126 34.996987 86.14643 75.378127 13.46038 45.765291 61.917747 69.993974 107.683037 56.533594l64.609823-24.228683c43.073215-18.844532 61.917747-69.993974 43.073215-113.06719-16.152456-37.689063-10.768304-80.762278 16.152456-113.067189l21.536607-26.920759c26.920759-32.304911 67.301898-45.765291 107.683038-37.689063 45.765291 10.768304 91.530582-18.844532 102.298885-64.609823 2.692076-10.768304 5.384152-24.228683 8.076228-34.996987 2.692076-13.46038 2.692076-24.228683 5.384152-34.996987 2.692076-24.228683-5.384152-45.765291-18.844532-64.609823-18.844532-24.228683-40.381139-34.996987-61.917746-37.689063z m-298.820429 64.609823c-13.46038 80.762278-88.838506 134.603797-166.908708 121.143417s-134.603797-88.838506-121.143418-166.908708c13.46038-80.762278 88.838506-134.603797 166.908708-121.143418 37.689063 5.384152 72.68605 26.920759 96.914734 59.225671s29.612835 69.993974 24.228684 107.683038z" fill="#4A8CF2" p-id="6542"></path></svg>