<?xml version="1.0" standalone="no"?><!DOCTYPE svg PUBLIC "-//W3C//DTD SVG 1.1//EN" "http://www.w3.org/Graphics/SVG/1.1/DTD/svg11.dtd"><svg t="1523427198482" class="icon" style="" viewBox="0 0 1024 1024" version="1.1" xmlns="http://www.w3.org/2000/svg" p-id="3841" xmlns:xlink="http://www.w3.org/1999/xlink" width="200" height="200"><defs><style type="text/css"></style></defs><path d="M915.2 790.4c3.2 9.6 6.4 22.4 9.6 38.4 3.2 16 3.2 32 3.2 48s0 32-3.2 44.8c-3.2 12.8-6.4 25.6-9.6 32-3.2 3.2-12.8 9.6-28.8 16s-35.2 9.6-60.8 16c-22.4 3.2-51.2 9.6-80 12.8-28.8 3.2-57.6 9.6-86.4 12.8-28.8 3.2-57.6 6.4-83.2 9.6-32 0-54.4 3.2-73.6 3.2-28.8 0-64-3.2-105.6-6.4-41.6-3.2-83.2-9.6-121.6-16-38.4-6.4-73.6-12.8-102.4-19.2-28.8-6.4-48-12.8-54.4-16-6.4-6.4-12.8-22.4-16-48-3.2-28.8-3.2-64 3.2-105.6 3.2-25.6 16-44.8 32-57.6 16-12.8 35.2-22.4 57.6-32 22.4-6.4 44.8-16 70.4-19.2 22.4-6.4 44.8-16 64-25.6 12.8-9.6 22.4-16 32-22.4 6.4-6.4 12.8-12.8 16-22.4 3.2-6.4 6.4-16 6.4-22.4v-25.6l-89.6-12.8c-12.8-9.6-22.4-19.2-32-38.4-9.6-12.8-16-35.2-22.4-57.6C227.2 448 224 416 224 377.6c0-32 3.2-67.2 6.4-105.6 3.2-35.2 9.6-73.6 25.6-105.6 12.8-35.2 35.2-64 60.8-89.6 25.6-25.6 64-48 108.8-60.8 25.6-9.6 51.2-12.8 80-12.8h44.8c35.2 0 64 6.4 92.8 19.2 25.6 12.8 51.2 32 70.4 54.4 19.2 22.4 38.4 48 51.2 73.6 12.8 28.8 25.6 54.4 32 83.2 3.2 25.6 9.6 54.4 12.8 80 3.2 25.6 3.2 48 3.2 67.2 0 28.8-6.4 54.4-12.8 76.8s-16 41.6-22.4 57.6c-9.6 19.2-19.2 35.2-28.8 51.2l-102.4 16c0 19.2 3.2 35.2 12.8 54.4 9.6 19.2 32 35.2 64 48 16 6.4 35.2 12.8 54.4 19.2 19.2 6.4 41.6 9.6 60.8 19.2 19.2 6.4 35.2 16 51.2 25.6 9.6 9.6 22.4 22.4 25.6 41.6z" fill="#F95F62" p-id="3842"></path></svg>