<?xml version="1.0" standalone="no"?><!DOCTYPE svg PUBLIC "-//W3C//DTD SVG 1.1//EN" "http://www.w3.org/Graphics/SVG/1.1/DTD/svg11.dtd"><svg t="1522394470578" class="icon" style="" viewBox="0 0 1024 1024" version="1.1" xmlns="http://www.w3.org/2000/svg" p-id="3620" xmlns:xlink="http://www.w3.org/1999/xlink" width="200" height="200"><defs><style type="text/css"></style></defs><path d="M890.88 960v-844.8L757.76 0 309.76 166.4v43.52l404.48-135.68v947.2H985.6v-58.88h-94.72zM163.84 698.88l215.04-43.52v-107.52l-215.04 56.32v94.72z m0 320h215.04v-110.08l-215.04 17.92v92.16z m0-156.16l215.04-20.48v-107.52L163.84 768v94.72z m0-325.12l215.04-58.88v-110.08l-215.04 71.68V537.6z m448-276.48l-120.32-71.68L38.4 350.72V1024h58.88V378.88l340.48-110.08v750.08h176.64l-2.56-757.76z" fill="#C0C6CF" p-id="3621"></path></svg>