<?xml version="1.0" standalone="no"?><!DOCTYPE svg PUBLIC "-//W3C//DTD SVG 1.1//EN" "http://www.w3.org/Graphics/SVG/1.1/DTD/svg11.dtd"><svg t="1522143776963" class="icon" style="" viewBox="0 0 1024 1024" version="1.1" xmlns="http://www.w3.org/2000/svg" p-id="6325" xmlns:xlink="http://www.w3.org/1999/xlink" width="200" height="200"><defs><style type="text/css"></style></defs><path d="M304.505263 460.8V269.473684c0-24.252632-18.863158-45.810526-45.810526-45.810526S215.578947 245.221053 215.578947 269.473684v471.578948c0 24.252632 18.863158 45.810526 45.810527 45.810526s45.810526-18.863158 45.810526-45.810526v-191.326316h161.684211v191.326316c0 24.252632 18.863158 45.810526 45.810526 45.810526s45.810526-18.863158 45.810526-45.810526V269.473684c0-24.252632-18.863158-45.810526-45.810526-45.810526s-45.810526 18.863158-45.810526 45.810526v191.326316h-164.378948zM962.021053 0C997.052632 0 1024 26.947368 1024 61.978947v900.042106c0 35.031579-26.947368 61.978947-61.978947 61.978947H61.978947C26.947368 1024 0 997.052632 0 962.021053V61.978947C0 26.947368 26.947368 0 61.978947 0h900.042106z m-196.71579 786.863158c24.252632 0 45.810526-18.863158 45.810526-45.810526V468.884211c0-24.252632-18.863158-45.810526-45.810526-45.810527-24.252632 0-45.810526 18.863158-45.810526 45.810527v272.168421c0 24.252632 18.863158 45.810526 45.810526 45.810526z m0-425.768421c24.252632 0 45.810526-18.863158 45.810526-45.810526V269.473684c0-24.252632-18.863158-45.810526-45.810526-45.810526-24.252632 0-45.810526 18.863158-45.810526 45.810526v45.810527c0 26.947368 18.863158 45.810526 45.810526 45.810526z" fill="#4A8CF2" p-id="6326"></path></svg>