<?xml version="1.0" standalone="no"?><!DOCTYPE svg PUBLIC "-//W3C//DTD SVG 1.1//EN" "http://www.w3.org/Graphics/SVG/1.1/DTD/svg11.dtd"><svg t="1522293540016" class="icon" style="" viewBox="0 0 1536 1024" version="1.1" xmlns="http://www.w3.org/2000/svg" p-id="3079" xmlns:xlink="http://www.w3.org/1999/xlink" width="300" height="200"><defs><style type="text/css"></style></defs><path d="M51.2 563.2c-30.72 0-51.2-20.48-51.2-51.2s20.48-51.2 51.2-51.2h1433.6c30.72 0 51.2 20.48 51.2 51.2s-20.48 51.2-51.2 51.2H51.2z m0-460.8c-30.72 0-51.2-20.48-51.2-51.2s20.48-51.2 51.2-51.2h1433.6c30.72 0 51.2 20.48 51.2 51.2s-20.48 51.2-51.2 51.2H51.2z m0 921.6c-30.72 0-51.2-20.48-51.2-51.2s20.48-51.2 51.2-51.2h1433.6c30.72 0 51.2 20.48 51.2 51.2s-20.48 51.2-51.2 51.2H51.2z" p-id="3080"></path></svg>