<?xml version="1.0" standalone="no"?><!DOCTYPE svg PUBLIC "-//W3C//DTD SVG 1.1//EN" "http://www.w3.org/Graphics/SVG/1.1/DTD/svg11.dtd"><svg t="1522234269414" class="icon" style="" viewBox="0 0 1024 1024" version="1.1" xmlns="http://www.w3.org/2000/svg" p-id="7636" xmlns:xlink="http://www.w3.org/1999/xlink" width="200" height="200"><defs><style type="text/css"></style></defs><path d="M384 160h256V64h-256v96zM320 160V32c0-19.2 12.8-32 32-32h320c19.2 0 32 12.8 32 32v128h256c19.2 0 32 12.8 32 32s-12.8 32-32 32H64c-19.2 0-32-12.8-32-32s12.8-32 32-32h256z m512 800V320c0-19.2 12.8-32 32-32s32 12.8 32 32v672c0 19.2-12.8 32-32 32H160c-19.2 0-32-12.8-32-32V320c0-19.2 12.8-32 32-32s32 12.8 32 32v640h640zM480 480c0-19.2 12.8-32 32-32s32 12.8 32 32v320c0 19.2-12.8 32-32 32s-32-12.8-32-32V480z m-160 0c0-19.2 12.8-32 32-32s32 12.8 32 32v320c0 19.2-12.8 32-32 32s-32-12.8-32-32V480z m320 0c0-19.2 12.8-32 32-32s32 12.8 32 32v320c0 19.2-12.8 32-32 32s-32-12.8-32-32V480z" p-id="7637"></path></svg>