<?xml version="1.0" standalone="no"?><!DOCTYPE svg PUBLIC "-//W3C//DTD SVG 1.1//EN" "http://www.w3.org/Graphics/SVG/1.1/DTD/svg11.dtd"><svg t="1522394412175" class="icon" style="" viewBox="0 0 1241 1024" version="1.1" xmlns="http://www.w3.org/2000/svg" p-id="3511" xmlns:xlink="http://www.w3.org/1999/xlink" width="242.3828125" height="200"><defs><style type="text/css"></style></defs><path d="M449.939394 15.515152C195.490909 15.515152 0 186.181818 0 372.363636s167.563636 294.787879 167.563636 294.787879l-27.927272 102.4c-3.10303 12.412121 12.412121 24.824242 24.824242 18.618182l124.121212-68.266667c55.854545 18.618182 170.666667 21.721212 179.975758 21.721212-9.309091-27.927273-12.412121-55.854545-12.412121-80.678787 0-142.739394 127.224242-347.539394 409.6-347.539394h18.618181C847.127273 139.636364 660.945455 15.515152 449.939394 15.515152z m-167.563636 297.890909c-31.030303 0-55.854545-24.824242-55.854546-55.854546s24.824242-55.854545 55.854546-55.854545 55.854545 24.824242 55.854545 55.854545-24.824242 55.854545-55.854545 55.854546z m325.818181 0c-31.030303 0-55.854545-24.824242-55.854545-55.854546s24.824242-55.854545 55.854545-55.854545 55.854545 24.824242 55.854546 55.854545-24.824242 55.854545-55.854546 55.854546z" fill="#C0C6CF" p-id="3512"></path><path d="M1241.212121 639.224242c0-164.460606-192.387879-282.375758-375.466666-282.375757-257.551515 0-366.157576 183.078788-366.157576 307.2 0 121.018182 108.606061 307.2 366.157576 307.2 55.854545 0 108.606061-9.309091 152.048484-21.721212l96.19394 62.060606c6.206061 6.206061 18.618182-3.10303 15.515151-9.309091l-21.721212-93.090909c89.987879-71.369697 133.430303-170.666667 133.430303-269.963637z m-493.381818-31.030303c-27.927273 0-49.648485-21.721212-49.648485-49.648484s21.721212-49.648485 49.648485-49.648485c27.927273 0 49.648485 21.721212 49.648485 49.648485s-21.721212 49.648485-49.648485 49.648484z m248.242424 0c-27.927273 0-49.648485-21.721212-49.648485-49.648484s21.721212-49.648485 49.648485-49.648485c27.927273 0 49.648485 21.721212 49.648485 49.648485s-24.824242 49.648485-49.648485 49.648484z" fill="#C0C6CF" p-id="3513"></path></svg>