<?xml version="1.0" standalone="no"?><!DOCTYPE svg PUBLIC "-//W3C//DTD SVG 1.1//EN" "http://www.w3.org/Graphics/SVG/1.1/DTD/svg11.dtd"><svg t="1522150226321" class="icon" style="" viewBox="0 0 1024 1024" version="1.1" xmlns="http://www.w3.org/2000/svg" p-id="7527" xmlns:xlink="http://www.w3.org/1999/xlink" width="200" height="200"><defs><style type="text/css"></style></defs><path d="M1014.090323 967.845161c13.212903 13.212903 13.212903 33.032258 0 46.245162-13.212903 13.212903-33.032258 13.212903-46.245162 0l-280.774193-280.774194c-13.212903-13.212903-13.212903-33.032258 0-46.245161 13.212903-13.212903 33.032258-13.212903 46.245161 0l280.774194 280.774193z" p-id="7528"></path><path d="M429.419355 858.83871C191.587097 858.83871 0 667.251613 0 429.419355S191.587097 0 429.419355 0s429.419355 191.587097 429.419355 429.419355-191.587097 429.419355-429.419355 429.419355z m0-66.064516c201.496774 0 363.354839-161.858065 363.354839-363.354839S630.916129 66.064516 429.419355 66.064516 66.064516 227.922581 66.064516 429.419355s161.858065 363.354839 363.354839 363.354839z" p-id="7529"></path></svg>