<?xml version="1.0" standalone="no"?><!DOCTYPE svg PUBLIC "-//W3C//DTD SVG 1.1//EN" "http://www.w3.org/Graphics/SVG/1.1/DTD/svg11.dtd"><svg t="1522142886758" class="icon" style="" viewBox="0 0 1024 1024" version="1.1" xmlns="http://www.w3.org/2000/svg" p-id="6000" xmlns:xlink="http://www.w3.org/1999/xlink" width="200" height="200"><defs><style type="text/css"></style></defs><path d="M512 0C229.2224 0 0 229.2224 0 512s229.2224 512 512 512 512-229.2224 512-512S794.7776 0 512 0z m302.848 470.1696c-23.424 36.8128-60.2368 65.2544-105.4208 78.6432-1.664 0-1.664 0-3.328 1.664-6.7072 1.6896-13.3888 3.3536-21.76 3.3536-31.7952 0-48.512-21.76-40.1664-46.848 6.7072-18.4064 25.088-35.1488 46.848-41.8304 35.1488-13.3888 58.5728-41.8304 58.5728-75.2896 0-45.184-43.52-81.9968-97.024-81.9968-53.5552 0-97.0752 36.8128-97.0752 81.9968v249.2928c0 60.2368-35.1232 112.128-86.9888 142.2336-28.4416 16.7168-61.9264 25.088-97.0496 25.088-102.0672 0-184.064-75.264-184.064-167.3216 0-30.1056 8.3712-56.8832 23.424-81.9712 23.424-36.8128 60.2368-65.28 105.4208-78.6432 8.3712-1.6896 15.0528-3.328 23.424-3.328 31.7952 0 48.512 21.7344 40.1664 46.848-6.7072 18.3808-23.424 33.4336-43.52 41.8048a12.6976 12.6976 0 0 0-6.6816 3.328c-31.7952 13.4144-53.5552 40.192-53.5552 73.6512 0 45.1584 43.52 81.9712 97.0496 81.9712 53.5552 0 97.0496-36.8128 97.0496-81.9712v-249.3184c0-60.2368 35.1488-112.1024 87.0144-142.208 28.416-16.7424 61.9008-25.088 97.024-25.088 102.0672 0 184.064 75.264 184.064 167.296 0 26.7776-8.3712 53.5552-23.424 78.6432z" fill="#2BA245" p-id="6001"></path></svg>