<?xml version="1.0" standalone="no"?><!DOCTYPE svg PUBLIC "-//W3C//DTD SVG 1.1//EN" "http://www.w3.org/Graphics/SVG/1.1/DTD/svg11.dtd"><svg t="1522146600947" class="icon" style="" viewBox="0 0 1024 1024" version="1.1" xmlns="http://www.w3.org/2000/svg" p-id="6758" xmlns:xlink="http://www.w3.org/1999/xlink" width="200" height="200"><defs><style type="text/css"></style></defs><path d="M512 0C230.4 0 0 204.8 0 460.8c2.56 125.44 56.32 243.2 151.04 325.12l-12.8 209.92c0 10.24 5.12 20.48 12.8 25.6 7.68 2.56 17.92 2.56 28.16-2.56l179.2-120.32c51.2 15.36 102.4 23.04 153.6 23.04 281.6 0 512-204.8 512-460.8S793.6 0 512 0z" fill="#8B97A6" p-id="6759"></path><path d="M289.28 545.28C243.2 545.28 204.8 506.88 204.8 460.8s38.4-84.48 84.48-84.48 84.48 38.4 84.48 84.48c0 23.04-10.24 43.52-25.6 61.44-12.8 15.36-35.84 23.04-58.88 23.04zM512 545.28c-46.08 0-84.48-38.4-84.48-84.48s38.4-84.48 84.48-84.48 84.48 38.4 84.48 84.48-38.4 84.48-84.48 84.48z" fill="#BDC6CF" p-id="6760"></path><path d="M734.72 545.28c-46.08 0-84.48-38.4-84.48-84.48s38.4-84.48 84.48-84.48c46.08 0 84.48 38.4 84.48 84.48s-38.4 84.48-84.48 84.48z" fill="#FFFFFF" p-id="6761"></path></svg>